<?xml version="1.0" encoding="UTF-8" standalone="no"?>
<!-- Created with Inkscape (http://www.inkscape.org/) -->

<svg
   xmlns:dc="http://purl.org/dc/elements/1.1/"
   xmlns:cc="http://creativecommons.org/ns#"
   xmlns:rdf="http://www.w3.org/1999/02/22-rdf-syntax-ns#"
   xmlns:svg="http://www.w3.org/2000/svg"
   xmlns="http://www.w3.org/2000/svg"
   xmlns:xlink="http://www.w3.org/1999/xlink"
   xmlns:sodipodi="http://sodipodi.sourceforge.net/DTD/sodipodi-0.dtd"
   xmlns:inkscape="http://www.inkscape.org/namespaces/inkscape"
   width="199.52649"
   height="205.37877"
   id="svg3439"
   version="1.1"
   inkscape:version="0.48.2 r9819"
   sodipodi:docname="glossy_button_blank_orange_circle.svg">
  <defs
     id="defs3441">
    <radialGradient
       inkscape:collect="always"
       xlink:href="#linearGradient4530"
       id="radialGradient5615"
       gradientUnits="userSpaceOnUse"
       cx="533.55188"
       cy="43.375031"
       fx="533.55188"
       fy="43.375031"
       r="61.832832" />
    <linearGradient
       id="linearGradient4530">
      <stop
         id="stop4532"
         style="stop-color:#dddddd;stop-opacity:1;"
         offset="0" />
      <stop
         id="stop4534"
         style="stop-color:#999999;stop-opacity:1;"
         offset="0.60992908" />
      <stop
         id="stop4536"
         style="stop-color:#111111;stop-opacity:1;"
         offset="1" />
    </linearGradient>
    <linearGradient
       inkscape:collect="always"
       xlink:href="#linearGradient4587"
       id="linearGradient5617"
       gradientUnits="userSpaceOnUse"
       gradientTransform="translate(28,552)"
       x1="525.55231"
       y1="34.041866"
       x2="531.23364"
       y2="66.734177" />
    <linearGradient
       inkscape:collect="always"
       id="linearGradient4587">
      <stop
         style="stop-color:#ffffff;stop-opacity:1"
         offset="0"
         id="stop4589" />
      <stop
         style="stop-color:#ffffff;stop-opacity:0"
         offset="1"
         id="stop4591" />
    </linearGradient>
    <linearGradient
       y2="66.734177"
       x2="531.23364"
       y1="34.041866"
       x1="525.55231"
       gradientTransform="translate(28,552)"
       gradientUnits="userSpaceOnUse"
       id="linearGradient7014"
       xlink:href="#linearGradient4587"
       inkscape:collect="always" />
  </defs>
  <sodipodi:namedview
     id="base"
     pagecolor="#ffffff"
     bordercolor="#666666"
     borderopacity="1.0"
     inkscape:pageopacity="0.0"
     inkscape:pageshadow="2"
     inkscape:zoom="0.2"
     inkscape:cx="-652.04776"
     inkscape:cy="4.3811178"
     inkscape:document-units="px"
     inkscape:current-layer="layer1"
     showgrid="false"
     inkscape:window-width="1009"
     inkscape:window-height="555"
     inkscape:window-x="517"
     inkscape:window-y="488"
     inkscape:window-maximized="0"
     fit-margin-top="0"
     fit-margin-left="0"
     fit-margin-right="0"
     fit-margin-bottom="0" />
  <metadata
     id="metadata3444">
    <rdf:RDF>
      <cc:Work
         rdf:about="">
        <dc:format>image/svg+xml</dc:format>
        <dc:type
           rdf:resource="http://purl.org/dc/dcmitype/StillImage" />
        <dc:title></dc:title>
      </cc:Work>
    </rdf:RDF>
  </metadata>
  <g
     inkscape:label="Layer 1"
     inkscape:groupmode="layer"
     id="layer1"
     transform="translate(-215.23673,-469.6728)">
    <g
       id="g5544"
       inkscape:export-filename="C:\Buttonsets\g5544.png"
       inkscape:export-xdpi="72"
       inkscape:export-ydpi="72"
       transform="matrix(2.3403329,0,0,2.4089768,-1001.5111,-893.79031)">
      <path
         transform="matrix(0.689404,0,0,0.689404,194.69873,578.71751)"
         d="m 577.23489,87.058021 -17.2731,-3.23377 -4.43895,17.333739 -14.46446,-9.979799 -11.10545,14.029669 -9.15479,-15.000221 -15.85172,8.29975 -2.26218,-17.426977 -17.85707,1.134726 5.02158,-16.840447 -16.77478,-6.226502 11.43708,-13.342052 -12.79198,-12.511112 15.87498,-7.536694 -6.59733,-16.6324357 17.56798,-0.4281733 0.73806,-17.8778616 16.22329,6.7543824 7.94584,-16.0320418 12.07346,12.7690435 13.7797,-11.4141375 5.83602,16.57582223 17.23093,-4.82262413 -1.41052,17.5164899 17.70277,2.602764 -8.41317,15.428397 15.11365,9.578112 -13.96112,10.672595 9.91124,14.897315 -17.09505,4.071404 z"
         inkscape:randomized="0"
         inkscape:rounded="-3.469447e-18"
         inkscape:flatsided="false"
         sodipodi:arg2="0.99034547"
         sodipodi:arg1="0.78539816"
         sodipodi:r2="48.779068"
         sodipodi:r1="62.258747"
         sodipodi:cy="43.034439"
         sodipodi:cx="533.2113"
         sodipodi:sides="15"
         id="path5611"
         style="fill:url(#radialGradient5615);fill-opacity:1;stroke:black;stroke-opacity:1;stroke-width:3;"
         sodipodi:type="star" />
      <path
         sodipodi:nodetypes="cscccccccccccccccccs"
         id="path5613"
         d="m 542.78064,612.19305 c 10.43239,-5.88254 31.0764,-10.4083 50.19029,-0.71818 3.21441,1.6296 6.49923,-2.75426 6.61932,-2.83121 6.46984,-2.73528 -1.86351,-4.83927 -4.45314,-7.1882 -4.25723,-2.33358 1.59038,-6.76055 2.32474,-9.83499 1.73391,-3.46398 -6.75519,-1.84471 -9.37268,-3.14501 -2.68119,-2.74254 0.10052,-7.87431 -0.36625,-11.54752 -3.74623,0.31272 -8.14129,3.768 -11.51952,2.042 -1.93563,-2.24986 -1.8017,-11.30812 -5.08822,-8.39097 -2.88422,1.31256 -6.1026,7.90424 -9.22216,4.18319 -2.8303,-2.319 -6.41168,-9.6604 -7.84801,-2.65899 -0.91761,1.85242 -1.83519,3.70484 -2.75278,5.55726 l -10e-6,0 c -3.45295,1.68855 -7.47015,-2.53512 -11.11663,-3.23158 -0.84895,3.67136 1.05789,8.90618 -1.59483,11.6135 -2.7398,1.14448 -11.31018,-1.78313 -9.55603,2.24417 0.55415,3.2926 5.87621,8.90852 0.49211,10.33874 -3.84547,1.84225 -10.09672,3.27909 -3.8234,6.82652 3.58573,2.35957 5.95834,6.07154 1.34142,8.91462 -0.77215,0.57314 6.24026,3.18655 15.74578,-2.17335 z"
         style="opacity:0.72137403;fill:url(#linearGradient7014);fill-opacity:1;stroke:none"
         inkscape:connector-curvature="0" />
    </g>
  </g>
</svg>
