<?xml version="1.0" encoding="UTF-8" standalone="no"?>
<!-- Created with Inkscape (http://www.inkscape.org/) -->
<svg
   xmlns:dc="http://purl.org/dc/elements/1.1/"
   xmlns:cc="http://creativecommons.org/ns#"
   xmlns:rdf="http://www.w3.org/1999/02/22-rdf-syntax-ns#"
   xmlns:svg="http://www.w3.org/2000/svg"
   xmlns="http://www.w3.org/2000/svg"
   xmlns:xlink="http://www.w3.org/1999/xlink"
   xmlns:sodipodi="http://sodipodi.sourceforge.net/DTD/sodipodi-0.dtd"
   xmlns:inkscape="http://www.inkscape.org/namespaces/inkscape"
   width="200"
   height="200"
   id="svg7341"
   sodipodi:version="0.32"
   inkscape:version="0.46"
   version="1.0"
   sodipodi:docname="star_button_red.svg"
   inkscape:output_extension="org.inkscape.output.svg.inkscape">
  <defs
     id="defs7343">
    <linearGradient
       inkscape:collect="always"
       xlink:href="#linearGradient6394"
       id="linearGradient7317"
       gradientUnits="userSpaceOnUse"
       x1="251.46875"
       y1="223.54764"
       x2="251.46875"
       y2="374.97681" />
    <linearGradient
       id="linearGradient7281">
      <stop
         style="stop-color:#ff0000;stop-opacity:1;"
         offset="0"
         id="stop7283" />
      <stop
         id="stop7289"
         offset="0.85897434"
         style="stop-color:#6d1313;stop-opacity:1;" />
      <stop
         style="stop-color:#cb0c0c;stop-opacity:1;"
         offset="1"
         id="stop7285" />
    </linearGradient>
    <linearGradient
       inkscape:collect="always"
       xlink:href="#linearGradient7281"
       id="linearGradient7315"
       gradientUnits="userSpaceOnUse"
       x1="154.68959"
       y1="262.4343"
       x2="154.68959"
       y2="441.57483" />
    <linearGradient
       inkscape:collect="always"
       id="linearGradient6394">
      <stop
         style="stop-color:#ffffff;stop-opacity:1;"
         offset="0"
         id="stop6396" />
      <stop
         style="stop-color:#ffffff;stop-opacity:0;"
         offset="1"
         id="stop6398" />
    </linearGradient>
    <linearGradient
       id="linearGradient7179">
      <stop
         style="stop-color:#000000;stop-opacity:1;"
         offset="0"
         id="stop7181" />
      <stop
         id="stop7187"
         offset="0.82999998"
         style="stop-color:#5b5858;stop-opacity:1;" />
      <stop
         style="stop-color:#000000;stop-opacity:1;"
         offset="1"
         id="stop7183" />
    </linearGradient>
    <inkscape:perspective
       sodipodi:type="inkscape:persp3d"
       inkscape:vp_x="0 : 526.18109 : 1"
       inkscape:vp_y="0 : 1000 : 0"
       inkscape:vp_z="744.09448 : 526.18109 : 1"
       inkscape:persp3d-origin="372.04724 : 350.78739 : 1"
       id="perspective7349" />
  </defs>
  <sodipodi:namedview
     id="base"
     pagecolor="#ffffff"
     bordercolor="#666666"
     borderopacity="1.0"
     inkscape:pageopacity="0.0"
     inkscape:pageshadow="2"
     inkscape:zoom="2.1555556"
     inkscape:cx="88.961541"
     inkscape:cy="34.066709"
     inkscape:document-units="px"
     inkscape:current-layer="layer1"
     showgrid="false"
     inkscape:window-width="1680"
     inkscape:window-height="1004"
     inkscape:window-x="0"
     inkscape:window-y="46" />
  <metadata
     id="metadata7346">
    <rdf:RDF>
      <cc:Work
         rdf:about="">
        <dc:format>image/svg+xml</dc:format>
        <dc:type
           rdf:resource="http://purl.org/dc/dcmitype/StillImage" />
      </cc:Work>
    </rdf:RDF>
  </metadata>
  <g
     inkscape:label="Ebene 1"
     inkscape:groupmode="layer"
     id="layer1"
     transform="translate(-0.8761005,0.1499114)">
    <g
       id="g7311"
       transform="translate(-102.81329,-828.72039)">
      <path
         sodipodi:type="star"
         style="fill:url(#linearGradient7315);fill-opacity:1;fill-rule:nonzero;marker:none;marker-start:none;marker-mid:none;marker-end:none;visibility:visible;display:inline;overflow:visible;enable-background:accumulate"
         id="path7271"
         sodipodi:sides="25"
         sodipodi:cx="154.897"
         sodipodi:cy="351.85785"
         sodipodi:r1="89.777779"
         sodipodi:r2="71.82222"
         sodipodi:arg1="0.60228735"
         sodipodi:arg2="0.72795106"
         inkscape:flatsided="false"
         inkscape:rounded="0"
         inkscape:randomized="0"
         d="M 228.87766,402.71955 L 208.51511,399.64415 L 213.90463,419.51988 L 194.94663,411.47713 L 195.22393,432.06875 L 178.86168,419.56402 L 174.00935,439.57767 L 161.27095,423.39668 L 151.59387,441.57484 L 143.27971,422.73429 L 129.38593,437.93476 L 126.01844,417.61847 L 108.78095,428.88615 L 110.57171,408.37068 L 91.073612,414.99757 L 97.910102,395.57197 L 77.376531,397.14169 L 88.82919,380.02654 L 68.550347,376.44045 L 83.899563,362.71118 L 65.149641,354.19461 L 83.430965,344.71385 L 67.388091,331.80193 L 87.452842,327.16541 L 75.125048,310.66944 L 95.712483,311.16849 L 87.874371,292.12497 L 107.69091,297.72823 L 104.83497,277.33374 L 122.63546,287.68913 L 124.94115,267.22513 L 139.60713,281.68199 L 146.92957,262.43431 L 157.53951,280.08426 L 169.41861,263.26229 L 175.30586,282.99632 L 190.99521,269.65706 L 191.78984,290.23521 L 210.30362,281.21681 L 205.95571,301.34608 L 226.13063,297.2152 L 216.91338,315.63078 L 237.48177,316.64698 L 223.97433,332.19177 L 243.64381,338.29119 L 226.69489,349.98844 L 244.22955,360.78784 L 224.90413,367.90258 L 239.20221,382.72339 L 218.71456,384.80857 L 228.87766,402.71955 z"
         transform="translate(48.99979,576.5659)" />
      <path
         transform="translate(-46.94387,584.65753)"
         sodipodi:type="inkscape:offset"
         inkscape:radius="4.7660947"
         inkscape:original="M 244.40625 271.53125 L 242.59375 276.28125 C 241.68649 278.65361 239.63776 280.39586 237.15625 280.9375 C 234.67474 281.47916 232.09455 280.74728 230.28125 278.96875 L 226.65625 275.40625 L 226.09375 280.4375 C 225.80594 282.96675 224.27556 285.17157 222 286.3125 C 219.72443 287.45344 217.01143 287.37618 214.8125 286.09375 L 210.375 283.53125 L 211.09375 288.59375 C 211.44438 291.11719 210.48567 293.64155 208.5625 295.3125 C 206.63933 296.98347 204.01224 297.57463 201.5625 296.875 L 196.6875 295.5 L 198.625 300.1875 C 199.59749 302.54336 199.31917 305.24371 197.875 307.34375 C 196.43083 309.4438 194.01661 310.65879 191.46875 310.59375 L 186.375 310.46875 L 189.4375 314.5625 C 190.95813 316.6021 191.34474 319.26776 190.46875 321.65625 C 189.59276 324.04476 187.57249 325.83344 185.09375 326.40625 L 183.03125 326.875 C 232.21328 338.56583 277.88188 337.58547 316.9375 331 C 314.7334 330.04986 313.09949 328.12057 312.5625 325.78125 C 312.02549 323.44192 312.64969 320.97252 314.21875 319.15625 L 317.5625 315.3125 L 312.46875 315.0625 C 309.92184 314.94138 307.59923 313.54505 306.3125 311.34375 C 305.02578 309.14245 304.94958 306.43491 306.09375 304.15625 L 308.375 299.59375 L 303.40625 300.625 C 300.91304 301.13511 298.32125 300.34016 296.53125 298.53125 C 294.74125 296.72234 293.99497 294.14396 294.53125 291.65625 L 295.59375 286.71875 L 291.03125 288.9375 C 288.73857 290.06064 286.03349 289.93758 283.84375 288.625 C 281.654 287.31241 280.27756 284.98892 280.1875 282.4375 L 280 277.375 L 276.125 280.65625 C 274.18459 282.30219 271.5328 282.84979 269.09375 282.125 C 266.65468 281.40022 264.75794 279.50099 264.03125 277.0625 L 262.5625 272.15625 L 259.625 276.34375 C 258.15687 278.42882 255.73583 279.62587 253.1875 279.53125 C 250.63918 279.43663 248.30947 278.0632 247 275.875 L 244.40625 271.53125 z "
         style="fill:url(#linearGradient7317);fill-opacity:1;fill-rule:nonzero;marker:none;marker-start:none;marker-mid:none;marker-end:none;visibility:visible;display:inline;overflow:visible;enable-background:accumulate"
         id="path7273"
         d="M 244.09375,266.78125 C 242.23919,266.91032 240.62888,268.10585 239.96875,269.84375 L 238.15625,274.59375 C 237.82598,275.45736 237.06008,276.07715 236.125,276.28125 C 235.18992,276.48536 234.29137,276.21609 233.625,275.5625 L 230,272 C 228.69923,270.71134 226.77526,270.2817 225.04985,270.89459 C 223.32444,271.50747 222.10262,273.05454 221.90625,274.875 L 221.34375,279.90625 C 221.23535,280.85885 220.7167,281.64049 219.875,282.0625 C 219.03329,282.48452 218.01593,282.43367 217.21875,281.96875 C 217.20833,281.96872 217.19792,281.96872 217.1875,281.96875 L 212.75,279.40625 C 211.17398,278.50247 209.22124,278.57319 207.71472,279.58859 C 206.2082,280.604 205.4099,282.38751 205.65625,284.1875 L 206.375,289.25 C 206.50301,290.17124 206.15864,291.09219 205.4375,291.71875 C 204.71637,292.34531 203.7779,292.53911 202.875,292.28125 C 202.86458,292.28122 202.85417,292.28122 202.84375,292.28125 L 197.96875,290.90625 C 196.21395,290.41709 194.3338,290.9709 193.12435,292.33319 C 191.91491,293.69548 191.58769,295.62799 192.28125,297.3125 L 194.21875,302 C 194.57873,302.87206 194.46278,303.89241 193.9375,304.65625 C 193.41222,305.42009 192.55111,305.86819 191.59375,305.84375 L 186.5,305.71875 C 184.68394,305.68039 183.00393,306.67755 182.16778,308.29012 C 181.33163,309.9027 181.4847,311.85034 182.5625,313.3125 L 185.625,317.40625 C 186.18759,318.16084 186.32517,319.11338 186,320 C 185.67482,320.88664 184.9428,321.53935 184.03125,321.75 L 181.96875,322.21875 C 179.8123,322.71685 178.2824,324.63378 178.27495,326.84699 C 178.2675,329.0602 179.78446,330.98739 181.9375,331.5 C 231.82368,343.35821 278.13892,342.36136 317.71875,335.6875 C 319.79072,335.32675 321.38139,333.65069 321.63338,331.5627 C 321.88538,329.47472 320.73915,327.46834 318.8125,326.625 C 317.97589,326.26436 317.41192,325.56026 317.21875,324.71875 C 317.02558,323.87725 317.23173,322.95352 317.8125,322.28125 L 321.15625,318.4375 C 322.34672,317.058 322.64657,315.12052 321.92879,313.4457 C 321.21101,311.77088 319.60121,310.65181 317.78125,310.5625 L 312.6875,310.3125 C 311.73936,310.26741 310.90638,309.73965 310.4375,308.9375 C 309.96864,308.13537 309.91704,307.13105 310.34375,306.28125 L 312.625,301.71875 C 313.42931,300.08868 313.2365,298.14306 312.1279,296.70255 C 311.01931,295.26204 309.18793,294.57743 307.40625,294.9375 L 302.4375,295.96875 C 301.53243,296.15393 300.56939,295.85765 299.90625,295.1875 C 299.2431,294.51735 298.98612,293.5904 299.1875,292.65625 L 300.25,287.71875 C 300.63127,285.93576 299.96201,284.09149 298.52601,282.96795 C 297.09002,281.84442 295.1389,281.63849 293.5,282.4375 L 288.9375,284.65625 C 288.09841,285.06731 287.09904,285.02145 286.28125,284.53125 C 285.46343,284.04103 284.97077,283.22367 284.9375,282.28125 C 284.93753,282.27083 284.93753,282.26042 284.9375,282.25 L 284.75,277.1875 C 284.67392,275.36851 283.56834,273.75173 281.90086,273.02096 C 280.23338,272.29019 278.29527,272.57309 276.90625,273.75 L 273.03125,277.03125 C 272.32669,277.62888 271.34404,277.83189 270.4375,277.5625 C 269.53094,277.29311 268.86561,276.59976 268.59375,275.6875 L 267.125,270.78125 C 266.60235,269.03054 265.12497,267.73263 263.32152,267.43982 C 261.51808,267.14701 259.70595,267.91083 258.65625,269.40625 L 255.71875,273.59375 C 255.17628,274.36418 254.32201,274.81641 253.375,274.78125 C 252.42798,274.74609 251.57539,274.24236 251.09375,273.4375 L 248.5,269.09375 C 247.58211,267.55657 245.88024,266.66339 244.09375,266.78125 L 244.09375,266.78125 z" />
    </g>
  </g>
</svg>
